<svg width="24" height="24" viewBox="0 0 24 24" fill="none" xmlns="http://www.w3.org/2000/svg">
<path d="M21.0181 14.8358L20.7727 15.5445H20.7727L21.0181 14.8358ZM21.0181 9.16449L21.2635 9.87322V9.87322L21.0181 9.16449ZM2.98189 14.8358L3.22727 15.5445H3.22727L2.98189 14.8358ZM2.98189 9.16449L2.73652 9.87322L2.73652 9.87322L2.98189 9.16449ZM15.5303 9.53045C15.8232 9.23756 15.8232 8.76269 15.5303 8.46979C15.2374 8.1769 14.7626 8.1769 14.4697 8.46979L15.5303 9.53045ZM8.46967 14.4698C8.17678 14.7627 8.17678 15.2376 8.46967 15.5305C8.76256 15.8233 9.23744 15.8233 9.53033 15.5305L8.46967 14.4698ZM6 20.2501C4.20507 20.2501 2.75 18.795 2.75 17.0001H1.25C1.25 19.6235 3.37665 21.7501 6 21.7501V20.2501ZM21.25 17.0001C21.25 18.795 19.7949 20.2501 18 20.2501V21.7501C20.6234 21.7501 22.75 19.6235 22.75 17.0001H21.25ZM18 3.75012C19.7949 3.75012 21.25 5.2052 21.25 7.00012H22.75C22.75 4.37677 20.6234 2.25012 18 2.25012V3.75012ZM6 2.25012C3.37665 2.25012 1.25 4.37677 1.25 7.00012H2.75C2.75 5.2052 4.20507 3.75012 6 3.75012V2.25012ZM21.2635 14.127C20.3815 13.8217 19.75 12.9837 19.75 12.0001H18.25C18.25 13.6425 19.3054 15.0365 20.7727 15.5445L21.2635 14.127ZM19.75 12.0001C19.75 11.0166 20.3815 10.1786 21.2635 9.87322L20.7727 8.45577C19.3054 8.96379 18.25 10.3577 18.25 12.0001H19.75ZM4.25 12.0001C4.25 12.9837 3.61845 13.8217 2.73652 14.127L3.22727 15.5445C4.69461 15.0365 5.75 13.6425 5.75 12.0001H4.25ZM2.73652 9.87322C3.61845 10.1786 4.25 11.0166 4.25 12.0001H5.75C5.75 10.3577 4.69462 8.96379 3.22727 8.45577L2.73652 9.87322ZM22.75 8.00012V7.00012H21.25V8.00012H22.75ZM21.25 16.0001V17.0001H22.75V16.0001H21.25ZM1.25 16.0001V17.0001H2.75V16.0001H1.25ZM2.75 8.00012V7.00012H1.25V8.00012H2.75ZM18 20.2501H6V21.7501H18V20.2501ZM18 2.25012H6V3.75012H18V2.25012ZM2.73652 14.127C2.05785 14.362 1.25 14.9977 1.25 16.0001H2.75C2.75 15.9443 2.77081 15.871 2.85172 15.7814C2.9366 15.6875 3.06974 15.599 3.22727 15.5445L2.73652 14.127ZM21.2635 9.87322C21.9422 9.63825 22.75 9.00258 22.75 8.00012H21.25C21.25 8.05599 21.2292 8.12929 21.1483 8.21884C21.0634 8.31278 20.9303 8.40123 20.7727 8.45577L21.2635 9.87322ZM3.22727 8.45577C3.06974 8.40123 2.9366 8.31278 2.85172 8.21884C2.77081 8.12929 2.75 8.05599 2.75 8.00012H1.25C1.25 9.00258 2.05785 9.63825 2.73652 9.87322L3.22727 8.45577ZM20.7727 15.5445C20.9303 15.599 21.0634 15.6875 21.1483 15.7814C21.2292 15.871 21.25 15.9443 21.25 16.0001H22.75C22.75 14.9977 21.9422 14.362 21.2635 14.127L20.7727 15.5445ZM9.25 9.00012C9.25 9.13819 9.13807 9.25012 9 9.25012V10.7501C9.9665 10.7501 10.75 9.96662 10.75 9.00012H9.25ZM9 9.25012C8.86193 9.25012 8.75 9.13819 8.75 9.00012H7.25C7.25 9.96662 8.0335 10.7501 9 10.7501V9.25012ZM8.75 9.00012C8.75 8.86205 8.86193 8.75012 9 8.75012V7.25012C8.0335 7.25012 7.25 8.03362 7.25 9.00012H8.75ZM9 8.75012C9.13807 8.75012 9.25 8.86205 9.25 9.00012H10.75C10.75 8.03362 9.9665 7.25012 9 7.25012V8.75012ZM15.25 15.0001C15.25 15.1382 15.1381 15.2501 15 15.2501V16.7501C15.9665 16.7501 16.75 15.9666 16.75 15.0001H15.25ZM15 15.2501C14.8619 15.2501 14.75 15.1382 14.75 15.0001H13.25C13.25 15.9666 14.0335 16.7501 15 16.7501V15.2501ZM14.75 15.0001C14.75 14.8621 14.8619 14.7501 15 14.7501V13.2501C14.0335 13.2501 13.25 14.0336 13.25 15.0001H14.75ZM15 14.7501C15.1381 14.7501 15.25 14.8621 15.25 15.0001H16.75C16.75 14.0336 15.9665 13.2501 15 13.2501V14.7501ZM14.4697 8.46979L8.46967 14.4698L9.53033 15.5305L15.5303 9.53045L14.4697 8.46979Z" fill="#141718"/>
</svg>
